<?xml version="1.0" encoding="iso-8859-1"?>
<!-- Uploaded to: SVG Repo, www.svgrepo.com, Generator: SVG Repo Mixer Tools -->
<svg fill="#000000" height="800px" width="800px" transform="matrix(-1, 0, 0, 1, 0, 0)rotate(0)" version="1.1" id="Layer_1" xmlns="http://www.w3.org/2000/svg" xmlns:xlink="http://www.w3.org/1999/xlink" 
	 viewBox="0 0 504.439 504.439" xml:space="preserve">
<g>
	<g>
		<path d="M504.311,196.096c-0.051-0.58-0.179-1.126-0.341-1.681c-0.154-0.521-0.299-1.024-0.546-1.502
			c-0.247-0.478-0.555-0.887-0.887-1.314c-0.341-0.444-0.683-0.862-1.109-1.229c-0.384-0.333-0.811-0.589-1.263-0.853
			c-0.521-0.307-1.033-0.572-1.613-0.768c-0.205-0.068-0.367-0.222-0.58-0.273l-102.4-25.6c-4.565-1.178-9.208,1.621-10.342,6.212
			c-1.143,4.565,1.638,9.199,6.212,10.334l10.598,2.654v40.277h-59.733v-47.667l23.1-23.1c2.441-2.441,3.174-6.11,1.852-9.301
			c-1.314-3.191-4.437-5.265-7.885-5.265H163.106c-2.125,0-4.164,0.794-5.743,2.21l-91.426,83.123H0l1.024,9.446
			c0.043,0.435,1.698,14.413,7.262,33.22h299.887c4.719,0,8.533,3.814,8.533,8.533c0,4.71-3.814,8.533-8.533,8.533H14.054
			c3.2,8.337,7.142,17.05,11.955,25.6h316.297c4.719,0,8.533,3.814,8.533,8.533c0,4.71-3.814,8.533-8.533,8.533H37.12
			c17.937,23.723,44.433,42.667,83.319,42.667h291.422l-1.135-9.549c-0.026-0.213-2.15-21.325,10.598-35.686
			c8.542-9.626,22.144-14.498,40.448-14.498c23.526,0,42.667-19.14,42.667-42.667v-68.267
			C504.439,196.523,504.329,196.326,504.311,196.096z M327.74,165.12c-1.604,1.596-2.5,3.763-2.5,6.033v51.2h-59.733v-25.6
			c0-4.719-3.814-8.533-8.533-8.533c-4.719,0-8.533,3.814-8.533,8.533v25.6h-59.733v-25.6c0-4.719-3.814-8.533-8.533-8.533
			s-8.533,3.814-8.533,8.533v25.6H91.315l75.093-68.267h172.365L327.74,165.12z M444.706,222.353h-25.6v-36.011l25.6,6.4V222.353z
			 M487.373,231.1c-7.151-5.41-15.957-8.747-25.6-8.747v-25.344l25.6,6.4V231.1z"/>
	</g>
</g>
</svg>